<svg data-v-29081953="" xmlns="http://www.w3.org/2000/svg" viewBox="0 0 300 300"><!----><defs data-v-29081953=""><linearGradient data-v-29081953="" gradientTransform="rotate(25)" id="e2039baa-81f1-4fd8-a988-767f0f81bc62" x1="0%" y1="0%" x2="100%" y2="0%"><stop data-v-29081953="" offset="0%" stop-color="#000A68" stop-opacity="1"></stop><stop data-v-29081953="" offset="100%" stop-color="#00C4EE" stop-opacity="1"></stop></linearGradient></defs><rect data-v-29081953="" fill="url(#e2039baa-81f1-4fd8-a988-767f0f81bc62)" x="0" y="0" width="300px" height="300px" class="logo-background-square"></rect><defs data-v-29081953=""><!----></defs><g data-v-29081953="" id="ee954435-b04b-44c2-9985-fce3987d98da" fill="#ffffff" transform="matrix(2.7378439903259277,0,0,2.7378439903259277,126.06467534930003,131.12256498624436)"><path d="M7.07 11.26L7.07 11.26Q7.27 11.47 7.27 11.75L7.27 11.75L7.27 11.75Q7.27 12.00 7.09 12.17L7.09 12.17L7.09 12.17Q6.92 12.33 6.64 12.33L6.64 12.33L6.64 12.33Q6.30 12.33 6.13 12.11L6.13 12.11L3.91 9.45L1.79 12.11L1.79 12.11Q1.58 12.33 1.29 12.33L1.29 12.33L1.29 12.33Q1.01 12.33 0.85 12.17L0.85 12.17L0.85 12.17Q0.69 12.00 0.69 11.75L0.69 11.75L0.69 11.75Q0.69 11.47 0.88 11.23L0.88 11.23L3.05 8.51L0.74 5.78L0.74 5.78Q0.53 5.53 0.53 5.25L0.53 5.25L0.53 5.25Q0.53 5.01 0.69 4.84L0.69 4.84L0.69 4.84Q0.85 4.68 1.15 4.68L1.15 4.68L1.15 4.68Q1.48 4.68 1.68 4.91L1.68 4.91L3.98 7.66L6.03 4.91L6.03 4.91Q6.22 4.68 6.55 4.68L6.55 4.68L6.55 4.68Q6.83 4.68 6.99 4.85L6.99 4.85L6.99 4.85Q7.15 5.03 7.15 5.28L7.15 5.28L7.15 5.28Q7.15 5.59 6.96 5.84L6.96 5.84L4.84 8.60L7.07 11.26ZM17.11 4.61L17.11 4.61Q18.33 4.61 19.08 5.40L19.08 5.40L19.08 5.40Q19.82 6.20 19.82 7.63L19.82 7.63L19.82 11.63L19.82 11.63Q19.82 11.94 19.63 12.14L19.63 12.14L19.63 12.14Q19.43 12.35 19.11 12.35L19.11 12.35L19.11 12.35Q18.80 12.35 18.60 12.14L18.60 12.14L18.60 12.14Q18.40 11.94 18.40 11.63L18.40 11.63L18.40 7.63L18.40 7.63Q18.40 6.78 17.97 6.33L17.97 6.33L17.97 6.33Q17.54 5.89 16.83 5.89L16.83 5.89L16.83 5.89Q16.10 5.89 15.63 6.40L15.63 6.40L15.63 6.40Q15.16 6.90 15.16 7.69L15.16 7.69L15.16 11.63L15.16 11.63Q15.16 11.94 14.97 12.14L14.97 12.14L14.97 12.14Q14.77 12.35 14.45 12.35L14.45 12.35L14.45 12.35Q14.14 12.35 13.94 12.14L13.94 12.14L13.94 12.14Q13.73 11.94 13.73 11.63L13.73 11.63L13.73 7.63L13.73 7.63Q13.73 6.78 13.31 6.33L13.31 6.33L13.31 6.33Q12.88 5.89 12.17 5.89L12.17 5.89L12.17 5.89Q11.42 5.89 10.96 6.40L10.96 6.40L10.96 6.40Q10.49 6.90 10.49 7.69L10.49 7.69L10.49 11.63L10.49 11.63Q10.49 11.94 10.29 12.14L10.29 12.14L10.29 12.14Q10.09 12.35 9.77 12.35L9.77 12.35L9.77 12.35Q9.46 12.35 9.26 12.14L9.26 12.14L9.26 12.14Q9.06 11.94 9.06 11.63L9.06 11.63L9.06 5.40L9.06 5.40Q9.06 5.08 9.26 4.89L9.26 4.89L9.26 4.89Q9.46 4.69 9.77 4.69L9.77 4.69L9.77 4.69Q10.08 4.69 10.28 4.88L10.28 4.88L10.28 4.88Q10.47 5.07 10.49 5.38L10.49 5.38L10.49 5.38Q10.85 5.01 11.35 4.81L11.35 4.81L11.35 4.81Q11.86 4.61 12.45 4.61L12.45 4.61L12.45 4.61Q13.16 4.61 13.73 4.89L13.73 4.89L13.73 4.89Q14.29 5.18 14.66 5.71L14.66 5.71L14.66 5.71Q15.08 5.19 15.71 4.90L15.71 4.90L15.71 4.90Q16.34 4.61 17.11 4.61L17.11 4.61ZM22.33 5.39L22.33 5.39Q22.33 5.07 22.53 4.87L22.53 4.87L22.53 4.87Q22.74 4.68 23.04 4.68L23.04 4.68L23.04 4.68Q23.37 4.68 23.56 4.87L23.56 4.87L23.56 4.87Q23.76 5.07 23.76 5.39L23.76 5.39L23.76 11.62L23.76 11.62Q23.76 11.93 23.56 12.13L23.56 12.13L23.56 12.13Q23.37 12.33 23.04 12.33L23.04 12.33L23.04 12.33Q22.74 12.33 22.53 12.13L22.53 12.13L22.53 12.13Q22.33 11.93 22.33 11.62L22.33 11.62L22.33 5.39ZM23.04 1.58L23.04 1.58Q23.42 1.58 23.70 1.85L23.70 1.85L23.70 1.85Q23.97 2.13 23.97 2.51L23.97 2.51L23.97 2.51Q23.97 2.88 23.70 3.16L23.70 3.16L23.70 3.16Q23.42 3.43 23.04 3.43L23.04 3.43L23.04 3.43Q22.67 3.43 22.39 3.16L22.39 3.16L22.39 3.16Q22.12 2.88 22.12 2.51L22.12 2.51L22.12 2.51Q22.12 2.13 22.39 1.85L22.39 1.85L22.39 1.85Q22.67 1.58 23.04 1.58L23.04 1.58ZM29.68 10.93L29.68 10.93Q29.93 10.93 30.11 11.13L30.11 11.13L30.11 11.13Q30.28 11.33 30.28 11.63L30.28 11.63L30.28 11.63Q30.28 11.94 30.05 12.14L30.05 12.14L30.05 12.14Q29.82 12.33 29.46 12.33L29.46 12.33L29.20 12.33L29.20 12.33Q28.52 12.33 27.95 11.98L27.95 11.98L27.95 11.98Q27.38 11.62 27.06 11.00L27.06 11.00L27.06 11.00Q26.74 10.39 26.74 9.62L26.74 9.62L26.74 6.16L26.10 6.16L26.10 6.16Q25.80 6.16 25.62 5.99L25.62 5.99L25.62 5.99Q25.44 5.82 25.44 5.57L25.44 5.57L25.44 5.57Q25.44 5.29 25.62 5.12L25.62 5.12L25.62 5.12Q25.80 4.96 26.10 4.96L26.10 4.96L26.74 4.96L26.74 2.94L26.74 2.94Q26.74 2.63 26.94 2.44L26.94 2.44L26.94 2.44Q27.13 2.24 27.44 2.24L27.44 2.24L27.44 2.24Q27.75 2.24 27.94 2.44L27.94 2.44L27.94 2.44Q28.14 2.63 28.14 2.94L28.14 2.94L28.14 4.96L29.33 4.96L29.33 4.96Q29.62 4.96 29.81 5.12L29.81 5.12L29.81 5.12Q29.99 5.29 29.99 5.57L29.99 5.57L29.99 5.57Q29.99 5.82 29.81 5.99L29.81 5.99L29.81 5.99Q29.62 6.16 29.33 6.16L29.33 6.16L28.14 6.16L28.14 9.62L28.14 9.62Q28.14 10.18 28.45 10.56L28.45 10.56L28.45 10.56Q28.76 10.93 29.20 10.93L29.20 10.93L29.68 10.93ZM35.84 4.61L35.84 4.61Q36.81 4.61 37.58 5.03L37.58 5.03L37.58 5.03Q38.35 5.45 38.78 6.25L38.78 6.25L38.78 6.25Q39.21 7.06 39.21 8.19L39.21 8.19L39.21 11.63L39.21 11.63Q39.21 11.94 39.01 12.14L39.01 12.14L39.01 12.14Q38.81 12.35 38.50 12.35L38.50 12.35L38.50 12.35Q38.19 12.35 37.99 12.14L37.99 12.14L37.99 12.14Q37.79 11.94 37.79 11.63L37.79 11.63L37.79 8.19L37.79 8.19Q37.79 7.06 37.18 6.47L37.18 6.47L37.18 6.47Q36.57 5.89 35.56 5.89L35.56 5.89L35.56 5.89Q34.97 5.89 34.49 6.13L34.49 6.13L34.49 6.13Q34.01 6.37 33.73 6.78L33.73 6.78L33.73 6.78Q33.46 7.18 33.46 7.69L33.46 7.69L33.46 11.63L33.46 11.63Q33.46 11.94 33.26 12.14L33.26 12.14L33.26 12.14Q33.07 12.35 32.75 12.35L32.75 12.35L32.75 12.35Q32.44 12.35 32.23 12.14L32.23 12.14L32.23 12.14Q32.03 11.94 32.03 11.63L32.03 11.63L32.03 2.11L32.03 2.11Q32.03 1.79 32.23 1.60L32.23 1.60L32.23 1.60Q32.44 1.40 32.75 1.40L32.75 1.40L32.75 1.40Q33.07 1.40 33.26 1.60L33.26 1.60L33.26 1.60Q33.46 1.79 33.46 2.11L33.46 2.11L33.46 5.54L33.46 5.54Q33.91 5.10 34.52 4.85L34.52 4.85L34.52 4.85Q35.14 4.61 35.84 4.61L35.84 4.61ZM48.20 1.40L48.20 1.40Q48.52 1.40 48.72 1.60L48.72 1.60L48.72 1.60Q48.92 1.79 48.92 2.11L48.92 2.11L48.92 8.50L48.92 8.50Q48.92 9.59 48.41 10.48L48.41 10.48L48.41 10.48Q47.89 11.37 47.02 11.88L47.02 11.88L47.02 11.88Q46.14 12.39 45.07 12.39L45.07 12.39L45.07 12.39Q43.99 12.39 43.10 11.88L43.10 11.88L43.10 11.88Q42.21 11.37 41.71 10.48L41.71 10.48L41.71 10.48Q41.20 9.59 41.20 8.50L41.20 8.50L41.20 8.50Q41.20 7.41 41.67 6.52L41.67 6.52L41.67 6.52Q42.14 5.63 42.96 5.12L42.96 5.12L42.96 5.12Q43.78 4.62 44.79 4.62L44.79 4.62L44.79 4.62Q45.60 4.62 46.30 4.96L46.30 4.96L46.30 4.96Q47.00 5.29 47.49 5.89L47.49 5.89L47.49 2.11L47.49 2.11Q47.49 1.79 47.69 1.60L47.69 1.60L47.69 1.60Q47.89 1.40 48.20 1.40L48.20 1.40ZM45.07 11.13L45.07 11.13Q45.77 11.13 46.33 10.79L46.33 10.79L46.33 10.79Q46.90 10.44 47.22 9.84L47.22 9.84L47.22 9.84Q47.54 9.24 47.54 8.50L47.54 8.50L47.54 8.50Q47.54 7.76 47.22 7.16L47.22 7.16L47.22 7.16Q46.90 6.57 46.33 6.22L46.33 6.22L46.33 6.22Q45.77 5.88 45.07 5.88L45.07 5.88L45.07 5.88Q44.37 5.88 43.80 6.22L43.80 6.22L43.80 6.22Q43.23 6.57 42.90 7.16L42.90 7.16L42.90 7.16Q42.57 7.76 42.57 8.50L42.57 8.50L42.57 8.50Q42.57 9.24 42.90 9.84L42.90 9.84L42.90 9.84Q43.23 10.44 43.80 10.79L43.80 10.79L43.80 10.79Q44.37 11.13 45.07 11.13L45.07 11.13Z"></path></g><defs data-v-29081953=""><!----></defs><g data-v-29081953="" id="23672981-9d47-41b9-9017-58d158f8aaff" stroke="none" fill="#ffffff" transform="matrix(0.8406130075454712,0,0,0.8406130075454712,35.22741226598297,107.96892508755339)"><path d="M5.833 37.065S1.672 70.26 36.4 70.26c0 0 8.655-33.195-30.567-33.195zM94.074 23.155c-47.241 0-51.611 29.712-50.744 44.967 7.981-23.02 29.738-28.101 29.738-28.101-20.77 12.557-25.03 35.225-25.307 36.825 52.753-2.036 46.313-53.691 46.313-53.691z"></path></g><!----></svg>